<?xml version="1.0" encoding="utf-8"?>
<!-- Generator: Adobe Illustrator 24.3.0, SVG Export Plug-In . SVG Version: 6.00 Build 0)  -->
<svg version="1.1" className ='mainsvg' xmlns="http://www.w3.org/2000/svg" xmlns:xlink="http://www.w3.org/1999/xlink" x="0px" y="0px"
	 viewBox="0 0 1720.6 1482.1" style="enable-background:new 0 0 1720.6 1482.1;" xml:space="preserve">
<style type="text/css">
	.st0{fill:#FFFFFF;}
</style>
<g>
	<g>
		<path class="st0" d="M1720.6,741c0.2-46.4-4.2-92.4-12.6-138.1c-12-64.3-32.1-125.8-60.6-184.6c-41.4-85.5-97.3-160.3-167.4-224.5
			c-91.7-84-197.8-141.4-318.3-172.1c-32.2-8.2-64.8-14.4-98-17.5c-17.1-1.6-34.1-3.9-51.2-4.2c-27.3-0.4-54.6,0.1-81.9,1.3
			c-18.1,0.7-36.3,2.6-54.3,5.1c-30.1,4.2-59.8,10.2-89.1,18.1C672,55.4,570.2,110.7,481.7,190.4c-81.2,73.2-143,160.5-185.7,261.2
			c-22.7,53.6-38.7,109.2-48.3,166.6c-4.5,26.6,20.4,49.5,46.5,43.2c18.2-4.4,27.1-16.9,30.1-34.6c10.9-63.7,30.4-124.7,59.5-182.4
			c67.7-134.5,169.3-235,304.3-301.4c79.8-39.2,164.5-60.7,253.1-65.4c28.5-1.5,57.2,0.2,85.8,0.9c26.5,0.7,52.7,4.9,78.7,9.9
			c60.8,11.7,119,31.1,174,59.6c133,68.9,232.8,170.6,298.5,305.3c38.9,79.8,59.8,164.4,64.3,253c2.4,46.3,0.1,92.5-7.2,138.5
			c-9.2,57.6-25.2,113.1-49.1,166.2c-44.3,98.9-109,182.3-193.8,249.8c-115,91.5-246.7,138.6-393.3,144.2
			c-36.2,1.4-72.2-1-108.1-5.7c-34.5-4.5-68.5-11.6-101.9-21.6c-96.8-28.8-182.8-76.8-257.3-144.9
			c-101.9-93.1-168.2-207.1-199.8-341.4c-3-12.9-5.3-26-7.9-39c-3.5-17.4-17.8-30.3-34.4-31.2c-19.3-1-34.5,9.2-40.1,26.8
			c-2.3,7.2-1.8,14.4-0.6,21.6c1.2,6.9,2.7,13.8,4,20.7c17.1,84.7,47.7,164.1,93,237.6c89.4,145,214,247.6,373.4,307.7
			c58.8,22.2,119.6,36.5,182.2,42.1c24.1,2.2,48.2,3.4,72.3,4.3c13,0.5,26-0.8,39-1c25.3-0.5,50.3-3.2,75.2-6.9
			c36.2-5.3,71.9-13.2,107-24c113.2-34.6,212.3-93.2,297.7-175c62.9-60.4,113.9-129.6,152.3-207.9
			C1695.9,964.3,1720.5,855.5,1720.6,741z M1024.4,206.2c0,13.9-0.1,26.6,0,39.4c0.2,26,0.8,52-2.4,77.9c-5.3,42.3-15,83.4-30.5,123
			c-45.8,117-126.9,198.4-245.5,241.3c-13.2,4.8-26.8,8.3-40,12.8c-23.6,8-35,33.5-25.4,56.3c5.3,12.5,14.6,20.5,27.6,24.4
			c16.9,5.1,34,9.7,50.5,15.8c66.6,24.4,124,62.4,168.6,117.9c66.7,82.9,96.4,178.8,97.5,284.3c0.3,26-1.1,52-1.7,78
			c0,2.2,0.2,4.4,0.4,6.6c0.5,0.2,1,0.5,1.5,0.7c1.3-1.6,2.4-3.3,3.8-4.7c19-20,38.1-39.8,57.1-59.9
			c54.5-57.4,102.5-119.7,140.1-189.6c44.1-82,70.7-168.9,74.8-262.4c2.1-48.9-2.2-97.2-12.2-144.9
			c-13.3-63.5-36.2-123.6-67.4-180.5c-41-75-91.5-142.6-155.7-199.6c-12.1-10.7-23.9-21.7-35.8-32.5
			C1028.2,209.2,1026.6,208,1024.4,206.2z M748.7,1089.1c-63.2-13.4-101-51.2-113.9-113.3c-12.8,61.8-50.3,99.6-113.1,113.3
			c62.9,13.6,100.4,51.5,113.1,113.2C646,1137.8,695.2,1097.8,748.7,1089.1z M404.4,775.1C404.4,775.1,404.4,775,404.4,775.1
			c13.3,0,26.5,0.2,39.8-0.1c16.7-0.3,30.5-13.4,32.9-30.8c2.1-15.5-8.8-32.3-24.3-36.6c-4.4-1.2-9.2-1.8-13.8-1.8
			c-22.4-0.2-44.7-0.1-67.1,0c-3.6,0-7.3,0.4-10.8,1.1c-17.6,3.4-29.5,19.2-28,36.7c1.6,17.6,15.9,31.1,33.8,31.4
			C379.5,775.2,392,775.1,404.4,775.1z M1462.8,966.5c4.2-23,13.9-42.2,29.9-58c16.1-15.9,35.6-25.2,57.8-29.1
			c-47.7-10-76.8-38.6-88-86.7c-11.1,54.5-51.7,81.4-88.3,86.4C1422,888.9,1451.5,917.5,1462.8,966.5z M567.8,775.1
			C567.8,775.1,567.8,775.1,567.8,775.1c10.9,0,21.9,0.2,32.8-0.1c22.3-0.5,38.1-22,32-43.6c-4.5-15.9-17.8-25.6-35.8-25.7
			c-19.3-0.2-38.5-0.1-57.8,0c-3.1,0-6.2,0.5-9.2,1.1c-17.2,3.4-29.2,19-28,36.1c1.3,18.1,15.8,31.8,34,32.1
			C546.5,775.2,557.1,775.1,567.8,775.1z M66.4,775.1C66.4,775.1,66.4,775.1,66.4,775.1c10.7,0,21.3,0.2,32-0.1
			c17.3-0.3,30.7-13,33.2-31.2c2.1-15.1-8.5-31.6-23.8-36.1c-4.7-1.4-9.7-1.9-14.6-1.9c-18.2-0.2-36.4-0.1-54.6,0
			c-3.6,0-7.3,0.5-10.8,1.1c-18.1,3.5-29.1,18.7-27.7,37.5c1.3,16.7,16.8,31.1,33.5,30.7C44.6,774.9,55.5,775.1,66.4,775.1z
			 M242.1,775.1c10.7,0,21.3,0.1,32,0c16.5-0.3,30.5-12.1,33.1-27.6c2.9-17.6-6.1-33.7-22.3-39.1c-4.8-1.6-10.2-2.4-15.3-2.4
			c-18.5-0.3-36.9-0.2-55.4-0.1c-3.3,0-6.7,0.5-10,1.1c-18.1,3.5-29.2,18.8-27.7,37.5c1.3,16.8,16.8,31.1,33.6,30.7
			C220.7,774.9,231.4,775.1,242.1,775.1z M767.7,423c9.6-43.2,36-69.6,78.6-80.3c-20.2-4.6-37.5-13.5-51.8-28
			c-14.2-14.4-22.6-31.8-26.8-53.1c-4.1,21.7-12.8,39.1-27.1,53.5c-14.3,14.4-31.8,23.2-51.5,27.7
			C731.8,353.5,757.9,379.9,767.7,423z"/>
		<path class="st0" d="M1720.6,741c-0.1,114.5-24.7,223.3-75.1,326.1c-38.4,78.4-89.4,147.6-152.3,207.9
			c-85.4,81.9-184.5,140.4-297.7,175c-35,10.7-70.7,18.7-107,24c-24.9,3.6-50,6.4-75.2,6.9c-13,0.2-26,1.5-39,1
			c-24.1-0.9-48.3-2.2-72.3-4.3c-62.6-5.6-123.4-19.9-182.2-42.1c-159.3-60.2-284-162.8-373.4-307.7c-45.3-73.5-76-153-93-237.6
			c-1.4-6.9-2.9-13.7-4-20.7c-1.2-7.2-1.7-14.5,0.6-21.6c5.5-17.6,20.8-27.8,40.1-26.8c16.6,0.9,30.8,13.8,34.4,31.2
			c2.6,13,4.9,26.1,7.9,39c31.6,134.3,97.9,248.4,199.8,341.4c74.5,68.1,160.6,116.1,257.3,144.9c33.4,9.9,67.3,17,101.9,21.6
			c35.9,4.7,72,7.1,108.1,5.7c146.6-5.6,278.3-52.6,393.3-144.2c84.8-67.5,149.5-150.8,193.8-249.8c23.8-53.2,39.9-108.7,49.1-166.2
			c7.3-45.9,9.5-92.1,7.2-138.5c-4.5-88.5-25.4-173.2-64.3-253c-65.7-134.6-165.5-236.4-298.5-305.3c-55-28.5-113.2-47.9-174-59.6
			c-26-5-52.2-9.2-78.7-9.9c-28.6-0.7-57.3-2.5-85.8-0.9C852.6,82.3,768,103.8,688.2,143c-135.1,66.4-236.7,166.9-304.3,301.4
			c-29.1,57.7-48.6,118.7-59.5,182.4c-3,17.8-11.9,30.2-30.1,34.6c-26.1,6.4-51-16.6-46.5-43.2c9.7-57.4,25.6-113,48.3-166.6
			c42.7-100.7,104.4-187.9,185.7-261.2c88.5-79.7,190.3-135,305.4-165.9c29.4-7.9,59.1-13.9,89.1-18.1c18-2.5,36.1-4.3,54.3-5.1
			c27.3-1.1,54.6-1.7,81.9-1.3c17.1,0.3,34.2,2.6,51.2,4.2c33.1,3.1,65.7,9.3,98,17.5c120.5,30.7,226.6,88.1,318.3,172.1
			c70.1,64.1,126,138.9,167.4,224.5c28.5,58.8,48.7,120.4,60.6,184.6C1716.4,648.6,1720.8,694.6,1720.6,741z"/>
		<path class="st0" d="M1024.4,206.2c2.2,1.8,3.8,3,5.3,4.3c11.9,10.8,23.8,21.8,35.8,32.5c64.2,56.9,114.7,124.6,155.7,199.6
			c31.1,56.9,54,116.9,67.4,180.5c10,47.8,14.4,96,12.2,144.9c-4.1,93.5-30.7,180.4-74.8,262.4c-37.6,69.9-85.6,132.1-140.1,189.6
			c-19,20-38.1,39.9-57.1,59.9c-1.4,1.5-2.6,3.2-3.8,4.7c-0.5-0.2-1-0.5-1.5-0.7c-0.1-2.2-0.4-4.4-0.4-6.6c0.6-26,2-52,1.7-78
			c-1-105.5-30.7-201.4-97.5-284.3c-44.7-55.5-102.1-93.5-168.6-117.9c-16.5-6.1-33.6-10.7-50.5-15.8c-13.1-3.9-22.4-12-27.6-24.4
			c-9.6-22.8,1.8-48.3,25.4-56.3c13.3-4.5,26.9-8,40-12.8c118.6-43,199.7-124.3,245.5-241.3c15.5-39.6,25.2-80.7,30.5-123
			c3.2-26,2.6-51.9,2.4-77.9C1024.3,232.9,1024.4,220.2,1024.4,206.2z M1087.8,365.2c-0.8,0.5-1.7,1.1-2.5,1.6
			c-0.7,2.5-1.5,5-1.9,7.5c-8.9,45.6-22.9,89.6-42.6,131.7c-29.8,63.9-70.8,119.3-125.1,164.5c-31.4,26.1-65.7,47.4-102.8,64.5
			c-2.6,1.2-5.1,2.8-7.9,4.3c1.2,1.2,1.4,1.7,1.9,1.9c2.6,1.2,5.2,2.4,7.8,3.6c84,37.8,150.7,95.4,199.2,173.8
			c35.7,57.7,58.1,120.6,70.8,187.1c0.4,2.2,1.1,4.3,1.9,7.7c2.5-2.7,4.2-4.3,5.6-6.1c38.5-48.5,71.4-100.5,96.1-157.3
			c25.3-58,40.5-118.5,43.7-181.7c3-60-4.9-118.8-22.5-176.3c-25-81.6-65.9-154.7-118.5-221.6
			C1089.7,368.9,1088.9,366.9,1087.8,365.2z"/>
		<path class="st0" d="M748.7,1089.1c-53.4,8.7-102.7,48.7-113.9,113.2c-12.6-61.7-50.2-99.7-113.1-113.2
			c62.7-13.6,100.3-51.5,113.1-113.3C647.7,1037.9,685.4,1075.7,748.7,1089.1z"/>
		<path class="st0" d="M404.4,775.1c-12.5,0-25,0.2-37.4,0c-17.9-0.3-32.3-13.8-33.8-31.4c-1.5-17.5,10.4-33.3,28-36.7
			c3.5-0.7,7.2-1.1,10.8-1.1c22.4-0.1,44.7-0.2,67.1,0c4.6,0,9.4,0.6,13.8,1.8c15.5,4.3,26.4,21.1,24.3,36.6
			c-2.4,17.4-16.2,30.5-32.9,30.8C431,775.2,417.7,775,404.4,775.1C404.4,775,404.4,775.1,404.4,775.1z"/>
		<path class="st0" d="M1462.8,966.5c-11.3-49-40.8-77.6-88.6-87.4c36.6-5,77.2-31.9,88.3-86.4c11.2,48.2,40.3,76.8,88,86.7
			c-22.2,3.9-41.7,13.2-57.8,29.1C1476.6,924.4,1467,943.6,1462.8,966.5z"/>
		<path class="st0" d="M567.8,775.1c-10.7,0-21.3,0.1-32,0c-18.3-0.3-32.7-14-34-32.1c-1.3-17.1,10.7-32.6,28-36.1
			c3-0.6,6.2-1.1,9.2-1.1c19.3-0.1,38.5-0.2,57.8,0c18,0.1,31.3,9.8,35.8,25.7c6.1,21.5-9.7,43.1-32,43.6
			C589.7,775.2,578.7,775,567.8,775.1C567.8,775.1,567.8,775.1,567.8,775.1z"/>
		<path class="st0" d="M66.4,775.1c-10.9,0-21.8-0.2-32.8,0c-16.7,0.4-32.3-14-33.5-30.7c-1.4-18.8,9.6-34,27.7-37.5
			c3.5-0.7,7.2-1.1,10.8-1.1c18.2-0.1,36.4-0.2,54.6,0c4.9,0.1,9.9,0.6,14.6,1.9c15.3,4.5,25.9,20.9,23.8,36.1
			c-2.5,18.2-15.9,30.9-33.2,31.2C87.7,775.2,77.1,775.1,66.4,775.1C66.4,775.1,66.4,775.1,66.4,775.1z"/>
		<path class="st0" d="M242.1,775.1c-10.7,0-21.3-0.2-32,0c-16.7,0.4-32.3-13.9-33.6-30.7c-1.4-18.7,9.6-34,27.7-37.5
			c3.3-0.6,6.7-1.1,10-1.1c18.5-0.1,36.9-0.2,55.4,0.1c5.1,0.1,10.4,0.8,15.3,2.4c16.2,5.4,25.1,21.6,22.3,39.1
			c-2.6,15.5-16.6,27.4-33.1,27.6C263.4,775.2,252.7,775.1,242.1,775.1z"/>
		<path class="st0" d="M767.7,423c-9.7-43.2-35.8-69.6-78.7-80.2c19.7-4.5,37.2-13.2,51.5-27.7c14.3-14.5,23-31.9,27.1-53.5
			c4.2,21.3,12.6,38.7,26.8,53.1c14.3,14.5,31.6,23.4,51.8,28C803.7,353.5,777.2,379.8,767.7,423z"/>
		<path class="st0" d="M1087.8,365.2c1,1.8,1.9,3.7,3.2,5.3c52.6,66.9,93.5,139.9,118.5,221.6c17.6,57.5,25.5,116.2,22.5,176.3
			c-3.2,63.2-18.4,123.7-43.7,181.7c-24.8,56.9-57.7,108.8-96.1,157.3c-1.4,1.8-3.1,3.3-5.6,6.1c-0.9-3.4-1.5-5.5-1.9-7.7
			c-12.8-66.5-35.1-129.4-70.8-187.1c-48.5-78.4-115.2-136-199.2-173.8c-2.6-1.2-5.2-2.4-7.8-3.6c-0.4-0.2-0.7-0.7-1.9-1.9
			c2.8-1.5,5.3-3.1,7.9-4.3c37-17.1,71.4-38.4,102.8-64.5c54.4-45.2,95.3-100.6,125.1-164.5c19.6-42.1,33.6-86.1,42.6-131.7
			c0.5-2.5,1.3-5,1.9-7.5C1086.2,366.2,1087,365.7,1087.8,365.2z"/>
	</g>
</g>
</svg>
