<?xml version="1.0" encoding="utf-8"?>
<!-- Generator: Adobe Illustrator 24.3.0, SVG Export Plug-In . SVG Version: 6.00 Build 0)  -->
<svg version="1.1" className ='mainsvg' xmlns="http://www.w3.org/2000/svg" xmlns:xlink="http://www.w3.org/1999/xlink" x="0px" y="0px"
	 viewBox="0 0 115.1 24.2" style="enable-background:new 0 0 115.1 24.2;" xml:space="preserve">
<style type="text/css">
	.st0{fill:#FFFFFF;}
</style>
<g>
	<path class="st0" d="M21.5,0C20.2,0,19,1.2,19,2.5v13L4.3,0.8C3.5,0.1,2.5-0.2,1.5,0.2C0.6,0.6,0,1.5,0,2.5v19.1
		c0,1.4,1.1,2.5,2.5,2.5S5,23,5,21.6v-13l14.8,14.8c0.5,0.5,1.1,0.7,1.8,0.7c0.3,0,0.6-0.1,1-0.2c0.9-0.4,1.5-1.3,1.5-2.3V2.5
		C24,1.2,22.9,0,21.5,0z"/>
	<path class="st0" d="M39.3,11.1c-1.3,0-2.5,1.2-2.5,2.5c0,1.3,1.2,2.5,2.5,2.5l6.1,0l-1.5,3h-7.9l-3.9-6.9l3.9-7.1h8.4l2,4h5
		l-3.2-7.6l-0.7-1.4H46H34.6h-1.5l-0.7,1.3L27.1,11l-0.7,1.2l0.7,1.2l5.3,9.3l0.7,1.3h1.5h10.9h1.6l0.7-1.4l4-8l1.8-3.6h-4
		L39.3,11.1z"/>
	<path class="st0" d="M58.5,0C57.1,0,56,1.3,56,2.6v6.5h5V2.6C61,1.2,59.8,0,58.5,0z"/>
	<path class="st0" d="M86.5,0.3c-0.9-0.4-2-0.2-2.7,0.5L69,15.6v-13c0-1.4-1.1-2.5-2.5-2.5S64,1.2,64,2.6v19.1c0,1,0.6,1.9,1.5,2.3
		c0.3,0.1,0.6,0.2,1,0.2c0.7,0,1.3-0.3,1.8-0.7L83,8.6v13c0,1.4,1.1,2.5,2.5,2.5S88,23,88,21.7V2.6C88,1.6,87.4,0.7,86.5,0.3z"/>
	<path class="st0" d="M106.5,12.1l7.8-7.7c1-1,1-2.6,0-3.5c-1-1-2.6-1-3.5,0L103,8.6l-7.8-7.8c-1-1-2.6-1-3.5,0c-1,1-1,2.6,0,3.5
		l7.8,7.7l-7.8,7.7c-1,1-1,2.6,0,3.5c0.5,0.5,1.1,0.7,1.8,0.7c0.6,0,1.3-0.2,1.8-0.7l7.8-7.7l7.8,7.7c0.5,0.5,1.1,0.7,1.8,0.7
		c0.6,0,1.3-0.2,1.8-0.7c1-1,1-2.6,0-3.5L106.5,12.1z"/>
	<path class="st0" d="M56,21.5c0,1.3,1.2,2.5,2.5,2.5c1.3,0,2.5-1.2,2.5-2.5V11.1h-5V21.5z"/>
</g>
</svg>
