<?xml version="1.0" encoding="utf-8"?>
<!-- Generator: Adobe Illustrator 24.3.0, SVG Export Plug-In . SVG Version: 6.00 Build 0)  -->
<svg version="1.1" id="Capa_1" xmlns="http://www.w3.org/2000/svg" xmlns:xlink="http://www.w3.org/1999/xlink" x="0px" y="0px"
	 viewBox="0 0 480.4 493.4" style="enable-background:new 0 0 480.4 493.4;" xml:space="preserve">
<style type="text/css">
	.st0{fill:#FFFFFF;}
</style>
<g id="ubuntu">
	<g>
		<g>
			<path class="st0" d="M162.4,241.2c0-38.1,17.9-72.1,45.7-93.9l-42.5-68.1C129.9,104.8,103,141.9,90.4,185
				c19.8,12.8,32.9,35,32.9,60.4c0,24.4-12.1,46-30.8,58.9c13.6,40.9,40.1,75.8,74.7,100.1l39.6-70.4
				C179.7,312.2,162.4,278.7,162.4,241.2z"/>
		</g>
	</g>
	<g>
		<path class="st0" d="M103.2,245.4c0,28.5-23.1,51.6-51.6,51.6C23.1,297,0,273.9,0,245.4c0-28.5,23.1-51.6,51.6-51.6
			C80.1,193.8,103.2,216.9,103.2,245.4z"/>
	</g>
	<g>
		<g>
			<path class="st0" d="M393,370.1c12,0,23.3,2.9,33.2,8.1c30.9-32.6,50.9-75.6,54.2-123.2l-80.1-1.6
				c-6.2,60.1-57,106.9-118.7,106.9c-17.1,0-33.4-3.6-48.1-10.1L193.7,420c26.6,13.1,56.4,20.4,87.9,20.4c13.6,0,27-1.4,39.9-4
				C324.2,399.4,355.2,370.1,393,370.1z"/>
		</g>
	</g>
	<g>
		<path class="st0" d="M444.6,441.8c0,28.5-23.1,51.6-51.6,51.6c-28.5,0-51.6-23.1-51.6-51.6c0-28.5,23.1-51.6,51.6-51.6
			C421.5,390.3,444.6,413.3,444.6,441.8z"/>
	</g>
	<g>
		<g>
			<path class="st0" d="M431.7,110.2c-11.7,8.3-26,13.2-41.4,13.2c-39.6,0-71.7-32.1-71.7-71.7c0-2.1,0.1-4.1,0.2-6.2
				c-12-2.3-24.5-3.5-37.2-3.5c-31.9,0-62,7.5-88.7,20.8l39.6,69.8c15-6.7,31.6-10.5,49.1-10.5c61.2,0,111.6,46.1,118.5,105.4
				l80.1-2.4C476.7,181.1,459,141.4,431.7,110.2z"/>
		</g>
	</g>
	<g>
		<path class="st0" d="M441.9,51.6c0,28.5-23,51.6-51.6,51.6c-28.5,0-51.6-23.1-51.6-51.6c0-28.5,23.1-51.6,51.6-51.6
			C418.8,0,441.9,23.1,441.9,51.6z"/>
	</g>
</g>
</svg>
