<?xml version="1.0" encoding="utf-8"?>
<!-- Generator: Adobe Illustrator 24.3.0, SVG Export Plug-In . SVG Version: 6.00 Build 0)  -->
<svg version="1.1" className ='mainsvg' xmlns:serif="http://www.serif.com/"
	 xmlns="http://www.w3.org/2000/svg" xmlns:xlink="http://www.w3.org/1999/xlink" x="0px" y="0px" viewBox="0 0 1080 1080"
	 style="enable-background:new 0 0 1080 1080;" xml:space="preserve">
<style type="text/css">
	.st1{fill:#ffffff}
</style>

<path class="st1" d="M948.1,0H132C59.1,0,0,59.1,0,132V948c0,72.8,59.1,132,132,132h403.1V673.1H382V498.8h153.1V366
	c0-151.1,90-234.6,227.7-234.6c66,0,135,11.8,135,11.8v148.4h-76c-74.9,0-98.2,46.5-98.2,94.2v113.1h167.2l-26.7,174.3H723.5V1080
	h224.6c72.8,0,131.9-59.1,131.9-132V132C1080,59.1,1020.9,0,948.1,0z"/>
</svg>
