<?xml version="1.0" encoding="utf-8"?>
<!-- Generator: Adobe Illustrator 24.3.0, SVG Export Plug-In . SVG Version: 6.00 Build 0)  -->
<svg version="1.1" className ='mainsvg' xmlns:serif="http://www.serif.com/"
	 xmlns="http://www.w3.org/2000/svg" xmlns:xlink="http://www.w3.org/1999/xlink" x="0px" y="0px" viewBox="0 0 1080 1080"
	 style="enable-background:new 0 0 1080 1080;" xml:space="preserve">
<style type="text/css">

.st0{fill:#ffffff}
</style>
<path class="st0" d="M948.1,0H132C59.1,0,0,59.1,0,132v816.1c0,72.8,59.1,131.9,132,131.9h816.1c72.8,0,131.9-59.1,131.9-131.9V132
	C1080,59.1,1020.9,0,948.1,0z M338.5,892.9H180.2V416.7h158.3V892.9z M259.3,351.7h-1c-53.1,0-87.4-36.6-87.4-82.3
	c0-46.7,35.4-82.3,89.5-82.3c54.2,0.1,87.4,35.7,88.5,82.3C348.9,315.1,314.5,351.7,259.3,351.7z M909.1,892.9H750.9V638.1
	c0-64-22.9-107.7-80.2-107.7c-43.7,0-69.8,29.5-81.2,57.9c-4.2,10.2-5.2,24.4-5.2,38.6v265.9H426.1c0,0,2.1-431.4,0-476.1h158.3
	v67.4c21.1-32.4,58.7-78.6,142.6-78.6c104.1,0,182.2,68,182.2,214.3V892.9z"/>

</svg>
