<?xml version="1.0" encoding="utf-8"?>
<!-- Generator: Adobe Illustrator 24.3.0, SVG Export Plug-In . SVG Version: 6.00 Build 0)  -->
<svg version="1.1" className ='mainsvg' xmlns:serif="http://www.serif.com/"
	 xmlns="http://www.w3.org/2000/svg" xmlns:xlink="http://www.w3.org/1999/xlink" x="0px" y="0px" viewBox="0 0 1080 1080"
	 style="enable-background:new 0 0 1080 1080;" xml:space="preserve">
<style type="text/css">
	.st0{fill:#ffffff;}
</style>
<path class="st0" d="M948.1,0H132C59.1,0,0,59.1,0,132V948c0,72.8,59.1,132,132,132h816.1c72.8,0,131.9-59.1,131.9-132V132
	C1080,59.1,1020.9,0,948.1,0z M841.4,329L540,590.2L238.6,329H841.4z M218.5,349.1l221,190.9l-221,190.9V349.1z M238.6,751
	l220-189.7l81.4,66.8l80.1-66.8L841.4,751H238.6z M861.5,730.9L640.5,540l221-190.9V730.9z"/>
</svg>
