<?xml version="1.0" encoding="utf-8"?>
<!-- Generator: Adobe Illustrator 24.3.0, SVG Export Plug-In . SVG Version: 6.00 Build 0)  -->
<svg version="1.1" className ='mainsvg' xmlns="http://www.w3.org/2000/svg" xmlns:xlink="http://www.w3.org/1999/xlink" x="0px" y="0px"
	 viewBox="0 0 440.1 53.4" style="enable-background:new 0 0 440.1 53.4;" xml:space="preserve">
<style type="text/css">
	.st0{fill:#FFFFFF;}
</style>
<g>
	<g>
		<path class="st0" d="M62.9,17.9c-0.3-3.3-0.5-5.9-0.7-8.9C41.5,9,21.1,9,0.4,9c0-3.1,0-5.6,0-8.7C1.7,0.2,3.1,0,4.6,0
			c20.3,0,40.6,0,61,0c11,0,14.6,3.1,14.9,14.1c0.4,12.8,0.1,25.6,0.1,39c-1.9,0.1-3.6,0.3-5.4,0.3c-19.5,0-39,0-58.5,0
			c-2,0-4-0.1-6-0.3C4.3,52.2,1,48.9,0.3,42.3C-0.1,39.2,0,36,0,32.9C0.3,21.4,3.7,18,15.1,17.9c13.8,0,27.6,0,41.5,0
			C58.4,17.9,60.2,17.9,62.9,17.9z M62.7,26.7c-11.1,0-21.8,0-32.4,0c-13.3,0-13.2,0-12.5,13.2c0.2,3.5,1.3,4.9,5,4.9
			c12-0.2,24-0.1,36-0.1c1.3,0,2.5-0.3,3.9-0.5C62.7,38.4,62.7,33,62.7,26.7z"/>
		<path class="st0" d="M377.8,35.6c-1.1,8.6-0.8,9.1,6.7,9.1c16.5,0,33,0,49.5,0c1.8,0,3.6,0,5.8,0c0,2.9,0,5.5,0,8.2
			c-0.6,0.1-1.3,0.4-1.9,0.4c-21.8,0-43.7,0.2-65.5-0.1c-8.8-0.1-12.2-3.4-12.5-12.1c-0.4-10-0.3-20,0.1-30
			c0.3-7.2,3.9-10.8,11.1-11c19.2-0.3,38.3-0.3,57.5,0c7.3,0.1,10.9,4,11.4,11.3c0.3,3.5,0.2,7,0.1,10.5c-0.3,9.8-4,13.4-13.9,13.6
			c-9,0.1-18,0-27,0C391.9,35.6,384.8,35.6,377.8,35.6z M377.2,8.8c0,5,0.2,9.5-0.1,14.1c-0.1,3,0.9,4,4,4
			c9.5-0.2,18.9-0.1,28.4-0.1c14.2,0,14.2,0,12.7-14.4c0-0.3,0.1-0.8-0.1-1c-0.9-0.9-1.9-2.6-2.8-2.6C405.6,8.8,392,8.8,377.2,8.8z"
			/>
		<path class="st0" d="M224.4,53.2c-6.3,0-11.5,0-17.1,0c-0.2-1.2-0.5-2.3-0.5-3.4c0-11.8-0.1-23.7,0-35.5
			c0.1-8.1,3.2-11.9,11.2-13.4c2.9-0.6,5.9-0.8,8.9-0.8c34.5-0.1,69,0,103.5,0c2.3,0,4.7,0.1,7,0.5c9.6,1.6,12.8,5.4,12.9,15.1
			c0,12.3,0,24.6,0,37.4c-5.9,0-11.4,0-17.5,0c-0.1-1.7-0.2-3.4-0.2-5.2c0-11-0.1-22,0-33c0.1-4.2-0.9-6.1-5.8-6.1
			c-32.2,0.2-64.3,0.2-96.5,0c-4.6,0-5.8,1.7-5.7,5.7c0.1,11,0,22,0,33C224.4,49.2,224.4,51,224.4,53.2z"/>
		<path class="st0" d="M107.7,53.2c-6.2,0-11.6,0-17.4,0c-0.2-1.1-0.4-2.1-0.4-3c0-12.2-0.1-24.3,0-36.5C90,6.5,93.1,2.7,100.2,1
			c2.3-0.5,4.6-0.9,6.9-0.9c15.3-0.1,30.6-0.1,46,0c2.9,0,6,0.6,8.8,1.5c5.3,1.6,8.5,5.3,8.5,11c0.1,13.3,0,26.6,0,40.4
			c-5.8,0-11.5,0-17.7,0c0-7.6,0-15.1,0-22.6c0-5.3-0.1-10.7,0-16c0.1-4.1-1.3-5.8-5.8-5.7c-11.1,0.3-22.3,0.4-33.5,0
			c-4.9-0.2-6,1.7-5.9,6c0.2,10.8,0.1,21.7,0,32.5C107.7,49,107.7,50.8,107.7,53.2z"/>
		<path class="st0" d="M197.2,18.2c0,11.7,0,23.1,0,34.8c-5.6,0-11.2,0-17.1,0c0-11.6,0-23.1,0-34.8
			C185.8,18.2,191.4,18.2,197.2,18.2z"/>
		<path class="st0" d="M180,9.5c0-2.9,0-5.4,0-8.2c5.8,0,11.4,0,17.1,0c0,2.8,0,5.4,0,8.2C191.5,9.5,186.1,9.5,180,9.5z"/>
		<path class="st0" d="M62.7,26.7c0,6.3,0,11.7,0,17.5c-1.4,0.2-2.6,0.5-3.9,0.5c-12,0-24-0.1-36,0.1c-3.8,0.1-4.8-1.3-5-4.9
			C17.1,26.7,17,26.7,30.3,26.7C40.9,26.7,51.6,26.7,62.7,26.7z"/>
		<path class="st0" d="M377.2,8.8c14.9,0,28.5-0.1,42,0.1c1,0,1.9,1.6,2.8,2.6c0.2,0.2,0.1,0.6,0.1,1c1.5,14.4,1.5,14.4-12.7,14.4
			c-9.5,0-18.9-0.1-28.4,0.1c-3.1,0.1-4.1-1-4-4C377.3,18.4,377.2,13.8,377.2,8.8z"/>
	</g>
</g>
</svg>
