<?xml version="1.0" encoding="utf-8"?>
<!-- Generator: Adobe Illustrator 24.3.0, SVG Export Plug-In . SVG Version: 6.00 Build 0)  -->
<svg version="1.1" className ='mainsvg' xmlns="http://www.w3.org/2000/svg" xmlns:xlink="http://www.w3.org/1999/xlink" x="0px" y="0px"
	 viewBox="0 0 25.5 36" style="enable-background:new 0 0 25.5 36;" xml:space="preserve">
<style type="text/css">
	.st0{display:none;}
	.st1{fill:#FFFFFF;}
</style>
<circle class="st0" cx="-26" cy="16.6" r="24.5"/>
<path class="st1" d="M0,7.1l2.3,26L12.7,36l10.5-2.9l2.3-26H0z M19.2,28.7l-6.5,1.7l-6.6-1.8l-0.4-5H9l0.2,2.6l3.5,1l3.6-1l0.4-4.1
	h-3.9H5.6l-0.3-3.2h7.5H17l0.3-3.3h-4.5H5l-0.3-3.2h8.1h8L19.2,28.7z"/>
<path class="st1" d="M6,0h3.9v1.6H7.6v1.6h2.3v1.6H6V0z M10.6,0h3.9v1.4h-2.2v0.3h2.2v3.2h-3.9V3.4h2.2V3.2h-2.3L10.6,0L10.6,0z
	 M15.3,0h3.9v1.4H17v0.3h2.2v3.2h-3.9V3.4h2.2V3.2h-2.2L15.3,0L15.3,0z"/>
<path class="st1" d="M20.5,18.8"/>
</svg>
