<?xml version="1.0" encoding="utf-8"?>
<!-- Generator: Adobe Illustrator 24.3.0, SVG Export Plug-In . SVG Version: 6.00 Build 0)  -->
<svg version="1.1" className ='mainsvg' xmlns="http://www.w3.org/2000/svg" xmlns:xlink="http://www.w3.org/1999/xlink" x="0px" y="0px"
	 viewBox="0 0 209 295" style="enable-background:new 0 0 209 295;" xml:space="preserve">
<style type="text/css">
	.st0{fill:#FFFFFF;}
</style>
<g>
	<path class="st0" d="M0,58l19,213.3l85.4,23.7l85.6-23.7L209,58H0z M169.3,108.6l-1.2,13.3l-0.5,5.8H67.5l2.4,26.8h34.5h60.8
		l-0.6,7.1l-6.2,68.8l-0.4,4.5l-53.6,14.8l-53.6-14.8l-3.7-41.1h26.3l1.8,20.9l29.2,7.8l29.2-7.9l3-33.9h-32.2H45.9l-6.4-72.1
		l-0.6-7h131L169.3,108.6z"/>
	<polygon class="st0" points="32.7,26.5 44.9,26.5 44.9,39.8 58.2,39.8 58.2,0 44.9,0 44.9,13.1 32.7,13.1 32.7,0 19.4,0 19.4,39.8 
		32.7,39.8 	"/>
	<polygon class="st0" points="75.7,39.8 89,39.8 89,13.2 100.7,13.2 100.7,0 64,0 64,13.2 75.7,13.2 	"/>
	<polygon class="st0" points="119.6,39.8 119.6,20.1 128.8,34.2 129,34.2 138.1,20.1 138.1,39.8 151.3,39.8 151.3,0 137.4,0 
		128.9,14 120.4,0 106.6,0 106.6,39.8 	"/>
	<polygon class="st0" points="189.9,26.6 171.2,26.6 171.2,0 157.9,0 157.9,39.7 189.9,39.7 	"/>
</g>
</svg>
