<?xml version="1.0" encoding="utf-8"?>
<!-- Generator: Adobe Illustrator 24.3.0, SVG Export Plug-In . SVG Version: 6.00 Build 0)  -->
<svg version="1.1" className ='mainsvg' xmlns="http://www.w3.org/2000/svg" xmlns:xlink="http://www.w3.org/1999/xlink" x="0px" y="0px"
	 viewBox="0 0 441.8 313.8" style="enable-background:new 0 0 441.8 313.8;" xml:space="preserve">
<style type="text/css">
	.st0{fill:#FFFFFF;}
</style>
<g transform="translate(0.000000,1052.000000) scale(0.100000,-0.100000)">
	<path class="st0" d="M3243,10514.8c-241.4-19.2-443.9-106-594.6-255.5c-155.2-153.9-229.3-341.7-229.3-579.9
		c0-356.4,146.2-605.4,472.6-802.8c83-49.8,196.1-104.1,391.5-188.4c266.3-114.3,365.3-168.6,428.5-236.3
		c77.9-83.7,99.6-217.1,50.5-319.3c-9.6-19.8-34.5-53-56.8-75.4c-75.4-76-194.1-116.2-341.7-116.2c-249.1,0-434.9,102.2-584.3,323.1
		c-20.4,29.4-39,53.6-41.5,53.6c-5.7,0-491.7-280.4-502-289.9c-6.4-5.7-1.3-19.2,23.6-60c194.1-327,497.5-518.6,907.5-573.5
		c107.3-14.7,308.5-14.1,411.3,0c258,36.4,451.5,122,601.6,267.6c159.7,153.9,238.2,353.2,238.2,602.9
		c0,159.7-26.2,284.2-85.6,407.4c-40.9,84.3-81.7,141.1-152,212.7c-134.8,136.7-309.1,240.1-657.2,389.6
		c-263.1,113-351.2,161.6-409.4,223.5c-55.6,59.4-79.2,129-74.1,215.9c4.5,69,23.6,115.6,65.8,160.9
		c60.7,65.8,130.9,93.2,239.5,92.6c123.3,0,203.1-31.9,284.2-113.7c28.7-28.1,65.8-73.4,83-100.9c19.8-31.3,34.5-48.5,39.6-46.6
		c16.6,7,480.9,307.2,480.9,311.7c0,2.6-23.6,39.6-52.4,83c-61.3,92-171.8,206.9-247.8,257.4c-140.5,93.2-290.6,141.1-488.6,155.8
		C3347.1,10521.8,3334.3,10521.8,3243,10514.8z"/>
	<path class="st0" d="M1254.9,9354.4l-1.9-1129.1l-14-53c-18.5-69.6-40.2-111.1-78.6-149.4c-53.6-53.6-122.6-76-237.6-76.6
		c-164.1-0.6-262.5,69-376.8,264.4c-18.5,30.7-35.1,55.6-37,54.9c-2.6-1.3-118.1-70.9-256.7-154.5L0,7957.7l19.2-38.3
		c114.3-228,312.3-400.4,550.5-479.6c251.6-83.7,574.8-76,811.7,19.2c284.2,115,450.9,352.5,494.9,705.7
		c3.8,35.8,6.4,434.9,6.4,1185.9v1132.3h-312.9h-312.3L1254.9,9354.4z"/>
</g>
</svg>
