<?xml version="1.0" encoding="utf-8"?>
<!-- Generator: Adobe Illustrator 24.3.0, SVG Export Plug-In . SVG Version: 6.00 Build 0)  -->
<svg version="1.1" className ='mainsvg' xmlns="http://www.w3.org/2000/svg" xmlns:xlink="http://www.w3.org/1999/xlink" x="0px" y="0px"
	 viewBox="0 0 319.5 344.3" style="enable-background:new 0 0 319.5 344.3;" xml:space="preserve">
<style type="text/css">
	.st0{fill:#FFFFFF;}
</style>
<g>
	<g>
		<path class="st0" d="M233.4,295.6c-4.2,12.6-8.3,25.1-12.8,38.7c0,0,0,0.1-0.1,0.2c-4.3-13.5-8.4-26.2-12.4-38.8h-11.1
			c5.9,16.1,11.7,31.8,17.5,47.6h0.1c0.4,0,0.7,0,1.1,0c1.6,0,3.1-0.1,4.5,0c0.3,0,0.6,0.1,0.9,0.1c0.4,0,0.8,0,1.2,0
			c2.7-0.2,4.3-1.9,5.4-5.1c2.6-7.7,5.8-15.2,8.7-22.8c2.5-6.5,5-13,7.6-19.8H233.4z M189,307.4c-0.2-1.8-0.6-3.4-1.2-4.9
			c-0.2-0.5-0.5-1-0.8-1.5c-0.1-0.2-0.3-0.5-0.4-0.7c-3.5-5.1-10-7.2-17-5c-4,1.3-7.5,4.2-11.3,6.5c0,0,0-0.1,0-0.1
			c-0.2-1.7-0.3-3.7-0.5-5.8H148V343h10.1v-6.2c0-7.7-0.2-15.3,0.2-23c0.3-6.4,5.5-11,11.5-11c2.5,0,4.5,0.7,6.1,2
			c0.2,0.2,0.4,0.3,0.5,0.5c1.7,1.8,2.7,4.5,3,8c0.4,4.8,0.2,9.7,0.2,14.5v15.3c3.6-0.1,6.4-0.1,9.6-0.1c0-1.1,0-2.2,0-3.4
			c0-1,0-2,0-2.9c0-0.5,0-1.1,0-1.6c0-0.2,0-0.3,0-0.5C189.5,325.5,189.8,316.4,189,307.4z M286.8,309.1c-0.4-8.5-4.5-12.9-12.9-14
			c-5.1-0.6-10.6,0.1-15.7,1.2c-2.3,0.5-3.8,1-4.8,1.7c-0.1,0.1-0.1,0.1-0.2,0.2c-1.9,1.4-1.7,3.6-0.6,8.4c16.8-7,23.9-5.5,24.3,5.7
			c-0.1,0-0.1,0-0.2,0c-6.2,1.1-12.6,1.8-18.7,3.4c-2.6,0.7-4.9,2-6.6,3.7c-0.2,0.2-0.4,0.4-0.6,0.6c-3.3,3.7-4.4,9.1-2.8,14.6
			c2.1,7.2,10.1,11.5,18.1,8.8c3.8-1.3,7.2-4,10.9-6.2c0.2,1.7,0.4,3.6,0.7,5.7c3,0.2,5.9,0.2,9.3,0.2c0-1.6,0-3.1,0-4.7
			c0-1,0-2.1,0-3.1c0-0.5,0-1,0-1.5c0-1.5,0-3,0-4.5C287.1,322.5,287.1,315.8,286.8,309.1z M267.1,336.3c-0.6,0.1-1.2,0.2-1.8,0.2
			c-0.2,0-0.5,0-0.7,0c-0.2,0-0.3,0-0.5,0c-0.1,0-0.2,0-0.4,0c-0.4,0-0.7-0.1-1.1-0.2c-0.2,0-0.4-0.1-0.5-0.2
			c-0.2-0.1-0.3-0.1-0.5-0.2c-0.2-0.1-0.3-0.2-0.5-0.2c-0.2-0.1-0.5-0.2-0.7-0.4c-1.6-1-2.7-2.5-3.1-4.3c-0.6-2.9-0.1-5.3,1.6-7
			c0.2-0.2,0.4-0.4,0.6-0.6c0.1-0.1,0.2-0.2,0.3-0.2c0.3-0.2,0.6-0.4,1-0.6c0.2-0.1,0.4-0.2,0.6-0.3c0.7-0.3,1.4-0.5,2.2-0.7
			c3.6-0.8,7.3-1.3,11.2-1.9c0.6-0.1,1.1-0.2,1.7-0.2C278,328.7,274.3,335,267.1,336.3z M112.9,294.5c-2.6,0-5.1,0.2-7.4,0.7
			c-0.6,0.1-1.2,0.3-1.8,0.4c-0.6,0.2-1.1,0.4-1.7,0.5c-0.5,0.2-0.9,0.3-1.3,0.5c-5.6,2.4-9.6,6.7-11.8,12.5
			c-0.3,0.9-0.6,1.8-0.9,2.8c-0.1,0.6-0.3,1.2-0.4,1.8c-0.3,1.7-0.5,3.5-0.5,5.4c0,3.4,0.4,6.5,1.3,9.4c0.1,0.3,0.2,0.6,0.3,0.9
			c0.2,0.6,0.4,1.2,0.7,1.7v0c0.2,0.5,0.5,1,0.7,1.5c3.7,7,10.6,11.2,19.7,11.6c0.3,0,0.6,0,0.9,0c0.5,0,1.1,0,1.6,0
			c10.8-0.4,18.6-6,21.9-15.1c0.5-1.3,0.8-2.7,1.1-4.1c0.1-0.4,0.1-0.7,0.2-1.1c0.2-1.4,0.3-2.9,0.3-4.5
			C136,304.1,127.3,294.7,112.9,294.5z M108.5,335.3c-2.5-0.7-5.2-2.5-7.2-4.5c-0.1-0.1-0.2-0.3-0.4-0.4c-0.1-0.1-0.2-0.3-0.4-0.4
			c-0.1-0.2-0.2-0.3-0.4-0.5c-3-4.3-3.2-11.8-1.3-17.4c0.5-1.4,1.1-2.7,1.9-3.8c1.1-1.5,2.3-2.7,3.7-3.5c0.1-0.1,0.3-0.2,0.4-0.2
			c2.4-1.3,5.3-1.7,8.5-1.5c1,0.1,1.9,0.2,2.8,0.5c0.2,0.1,0.4,0.1,0.6,0.2c2.9,1,5.1,3,6.5,5.9c0.1,0.2,0.2,0.4,0.3,0.6
			c0.1,0.2,0.2,0.5,0.3,0.7c0.9,2.6,1.2,5.5,1.8,8.2C125.4,331.3,118.7,337.9,108.5,335.3z M55.8,308.4c8.7-10.7,17-20.9,25.7-31.5
			c-1.6-0.3-3.1-0.5-4.5-0.6c-0.4,0-0.7,0-1.1,0c-5-0.1-8.9,1.6-12,6.8c-3.5,6-8.4,11.2-12.7,16.7c-1.3,1.8-2.7,3.6-4.1,5.4
			c-0.5,0.6-0.9,1.2-1.4,1.8c-0.1,0-0.2-0.1-0.3-0.1c-0.1,0-0.2-0.1-0.3-0.1c0,0,0,0-0.1,0c-0.2-0.1-0.4-0.1-0.6-0.2v-29.8h-10v66.1
			h10.4v-31.6c0.1,0.1,0.1,0.2,0.2,0.2c7.6,8.4,14.2,17.1,20.7,25.8c3.2,4.3,6.4,6.2,10.6,6.2c0.3,0,0.6,0,0.9,0
			c1.8-0.1,3.8-0.5,6-1.3C74.1,330.9,65,319.7,55.8,308.4z M319.3,152.8c0-0.9-0.1-1.8-0.1-2.7c-1.1-18.5-5.2-36.2-12.4-53.1
			c-14-32.7-38.3-59.2-68.1-76.2c-4.3-2.4-8.6-4.7-13.1-6.7c-1.8-0.8-3.5-1.6-5.3-2.3c-2.7-1.1-5.4-2.1-8.1-3.1
			c-1.8-0.6-3.7-1.2-5.5-1.8c-2.8-0.8-5.6-1.6-8.4-2.3c-3.8-0.9-7.6-1.7-11.4-2.4c-19.5-3.3-40.1-3-60.8,1.5
			c-3.9,0.8-7.7,1.8-11.4,2.9c-1.9,0.6-3.8,1.2-5.7,1.8c-17.8,5.9-33.9,14.8-48,25.9c-2.6,2.1-5.2,4.2-7.7,6.4
			c-4.2,3.7-8.1,7.7-11.9,11.8c-1.5,1.6-2.9,3.3-4.3,5c-1.4,1.7-2.8,3.4-4.2,5.2c-0.7,0.9-1.3,1.8-2,2.7c-1.2,1.7-2.4,3.4-3.6,5.1
			c-1.6,2.4-3.2,4.9-4.7,7.4l0,0C5.2,107-3,141.9,1,177.9c3.6,32.6,16.5,61.4,37.9,86.5c2.5,3,5.1,4.4,9,4.6c0.2,0,0.5,0,0.7,0
			c37-0.2,74-0.1,111-0.1c9.2,0,18.5,0,27.8,0c27.8,0,55.5,0,83.2,0.1c4.7,0,7.7-1.5,10.6-5C308,231.6,321.2,194.8,319.3,152.8z
			 M166.4,253c-1-0.8-1.3-2.2-1.3-4.3c0.1-8.7,0.1-17.3,0-26c-0.1-3.6,1.2-5.1,5-4.9c4.5,0.3,9,0.1,14.8,0.1
			c-10.6-15.1-20.6-29.4-30.9-44.1c0,0,0,0,0,0c0,0,0-0.1-0.1-0.1c-5.6,4.8-10.9,9.1-15.9,13.7c-0.9,0.9-1.3,2.7-1.3,4.1
			c-0.1,7.3,0.1,14.7-0.1,22c0,1.7,0.3,2.8,1,3.5c0.1,0.1,0.1,0.1,0.2,0.2c0.8,0.7,2,0.9,3.7,0.9c4.5,0,6.8,0.1,8,1.2
			c0,0,0.1,0.1,0.1,0.2c0,0,0,0,0,0c0,0,0.1,0.1,0.1,0.2c0.8,1.3,0.8,3.5,0.8,7.4c0,7.2-0.1,14.3,0,21.5c0,3.6-0.9,5.3-5.1,5.3
			c-24.8-0.2-49.7-0.2-74.5,0c-1.9,0-3.2-0.3-4-1c-0.1-0.1-0.1-0.1-0.2-0.2c-0.6-0.8-0.9-2.1-0.8-3.9c0.2-8.7,0.2-17.3,0-26
			c-0.1-3.6,1.1-5.3,4.9-4.9c0.8,0.1,1.7-0.1,2.5,0c4.4,0.6,5.7-1.1,5.7-5.6c-0.2-35-0.2-70,0-105c0-2.2-0.3-3.6-1.2-4.5
			c-0.1-0.1-0.1-0.2-0.2-0.2c-0.9-0.8-2.3-1.1-4.4-1c-3.8,0.1-5.6,0.1-6.5-1c0,0,0,0,0,0c-0.7-1-0.7-2.9-0.7-6.2
			c0-7.8,0.2-15.7-0.1-23.5c-0.1-4,1.4-5.1,5.3-5.1c24.7,0.1,49.3,0.1,74,0c2,0,3.4,0.3,4.2,1.1c0.1,0.1,0.2,0.2,0.2,0.3
			c0.7,0.9,1,2.2,0.9,4c-0.2,8.5-0.1,17,0,25.5c0.1,3.5-0.9,5.1-4.8,5.1c-9,0-9,0.2-9,9.1v30.8c2-1.7,4-3.4,6-5
			c13.8-11.7,27.1-22.9,41.2-34.9h-0.2c0,0,0.1-0.1,0.1-0.1c-5.5,0-9.8-0.1-14,0.1c-1.9,0.1-3.2-0.3-4-1.2c0,0,0,0,0,0
			c-0.5-0.7-0.8-1.8-0.8-3.2c0.1-9,0.1-18,0-27c0-3.5,1.5-4.6,4.9-4.5c26.7,0.1,53.3,0.1,80,0c1.8,0,3.1,0.3,3.9,1.1c0,0,0,0,0,0
			c0.1,0.1,0.1,0.1,0.1,0.2c0,0,0,0,0,0c0.5,0.7,0.7,1.7,0.6,3c-0.2,9-0.2,18,0,27c0.1,3.6-1.5,4.9-4.8,4.4
			c-8.2-1.4-14.2,2.1-20,7.5c-9.1,8.3-18.7,16-28.2,23.9c-1,0.9-2.2,1.4-3.5,2.2c9.5,13.5,18.2,26.1,27,38.6
			c8.8,12.6,17.8,25,26.3,37.7c0.7,1,1.3,1.9,2,2.7c0.5,0.5,1,1,1.5,1.5c2.1,1.9,4.7,2.8,8.3,2.1c1.8-0.4,3.2-0.2,4.1,0.5
			c0.1,0.1,0.1,0.1,0.2,0.2c0.8,0.9,1.2,2.3,1.1,4.4c-0.2,8.5-0.2,17,0,25.5c0.1,3.7-0.8,5.3-5,5.3c-31.2-0.2-62.3-0.2-93.5,0
			C168.5,253.8,167.3,253.6,166.4,253C166.5,253,166.5,253,166.4,253z"/>
		<path class="st0" d="M319.3,152.8c0-0.9-0.1-1.8-0.1-2.7V150c-1.1-18.5-5.2-36.2-12.4-53.1c-14-32.7-38.3-59.2-68.1-76.1
			c-4.3-2.4-8.6-4.7-13.1-6.7c-1.8-0.8-3.5-1.6-5.3-2.3c-2.7-1.1-5.4-2.1-8.1-3.1c-1.8-0.6-3.7-1.2-5.5-1.8
			c-2.8-0.8-5.6-1.6-8.4-2.3c-3.8-0.9-7.6-1.7-11.4-2.4c-19.5-3.3-40.1-3-60.8,1.5c-3.9,0.8-7.7,1.8-11.4,2.9
			c-1.9,0.6-3.8,1.2-5.7,1.8c-17.8,5.9-33.9,14.8-48,25.9c-2.6,2.1-5.2,4.2-7.7,6.4c-4.2,3.7-8.1,7.7-11.9,11.8
			c-1.5,1.6-2.9,3.3-4.3,5c-1.4,1.7-2.8,3.4-4.2,5.2c-0.7,0.9-1.3,1.8-2,2.7c-1.2,1.7-2.4,3.4-3.6,5.1c-1.6,2.4-3.2,4.9-4.7,7.4l0,0
			c-17.4,29.2-25.7,64-21.7,100c3.7,32.6,16.6,61.5,37.9,86.5c2.5,3,5.2,4.4,9.1,4.6c0.2,0,0.5,0,0.7,0c37-0.2,74-0.1,111-0.1
			c9.2,0,18.5,0,27.8,0c27.8,0,55.5-0.1,83.2,0c4.7,0,7.7-1.5,10.6-5C308,231.5,321.1,194.7,319.3,152.8z M166.4,253
			c-1.1-0.8-1.5-2.2-1.4-4.4c0.1-8.7,0.1-17.3,0-26c0-3.6,1.2-5.1,5-4.9c4.4,0.3,8.9,0.1,14.8,0.1c-10.6-15.1-20.5-29.2-30.8-44
			c0,0,0-0.1-0.1-0.1c-5.6,4.8-10.9,9.1-15.9,13.7c-0.9,0.9-1.3,2.7-1.3,4.1c-0.1,7.3,0.1,14.7-0.1,22c0,1.7,0.3,2.8,1,3.5
			c0.1,0.1,0.1,0.1,0.2,0.2c0.8,0.6,2,0.8,3.6,0.8c4.7,0,7,0,8.1,1.3c0,0,0.1,0.1,0.1,0.2c0,0,0,0,0,0c0,0,0.1,0.1,0.1,0.2
			c0.8,1.3,0.8,3.5,0.8,7.4c0,7.2-0.1,14.3,0,21.5c0,3.6-0.9,5.3-5.1,5.3c-24.8-0.2-49.7-0.2-74.5,0c-1.9,0-3.2-0.3-4-1
			c-0.1-0.1-0.1-0.1-0.2-0.2c-0.7-0.8-1-2.1-0.9-4c0.2-8.7,0.2-17.3,0-26c0-3.7,1.1-5.4,4.9-4.9c0.8,0.1,1.7-0.1,2.5,0
			c4.4,0.6,5.7-1.2,5.7-5.6c-0.2-35-0.2-70,0-105c0-2.1-0.3-3.5-1.1-4.4c-0.1-0.1-0.1-0.2-0.2-0.2c-0.9-0.8-2.3-1.1-4.4-1
			c-3.8,0.1-5.6,0.1-6.5-1c0,0,0,0,0,0c-0.8-1-0.8-2.9-0.8-6.3c0-7.8,0.1-15.7-0.1-23.5c-0.1-3.9,1.4-5.1,5.3-5.1
			c24.7,0.1,49.3,0.2,74,0c2.1,0,3.5,0.4,4.3,1.2c0.1,0.1,0.2,0.2,0.2,0.3c0.7,0.9,1,2.2,0.9,4c-0.2,8.5-0.1,17,0,25.5
			c0.1,3.5-0.9,5.1-4.8,5.1c-9,0-9,0.2-9,9.1v30.8c2-1.7,4-3.4,6-5c13.8-11.6,27.1-22.9,41-34.9c0,0,0.1-0.1,0.1-0.1
			c-5.5,0-9.8-0.1-14,0.1c-1.9,0.1-3.2-0.3-4-1.2c0,0,0,0,0,0c-0.6-0.7-0.9-1.8-0.9-3.3c0.1-9,0.1-18,0-27c0-3.4,1.5-4.5,4.9-4.5
			c26.7,0.1,53.3,0.1,80,0c1.9,0,3.2,0.3,4,1.2c0,0,0,0,0,0c0.1,0.1,0.1,0.1,0.1,0.2c0,0,0,0,0,0c0.5,0.7,0.7,1.7,0.6,3
			c-0.2,9-0.2,18,0,27c0.1,3.6-1.5,4.9-4.8,4.4c-8.2-1.4-14.2,2.1-20,7.5c-9.1,8.3-18.7,16-28.2,23.9c-1,0.9-2.2,1.4-3.5,2.2
			c9.5,13.5,18.2,26.1,27,38.6c8.8,12.6,17.8,25,26.3,37.7c0.7,1,1.3,1.9,2,2.7c0.5,0.5,1,1,1.5,1.5c2.1,1.8,4.6,2.7,8.2,2
			c1.9-0.4,3.3-0.2,4.2,0.6c0.1,0.1,0.1,0.1,0.2,0.2c0.8,0.9,1.2,2.3,1.1,4.4c-0.2,8.5-0.2,17,0,25.5c0.1,3.7-0.8,5.3-5,5.3
			c-31.2-0.2-62.3-0.2-93.5,0C168.5,253.8,167.3,253.6,166.4,253C166.5,253,166.5,253,166.4,253z"/>
		<path class="st0" d="M45.7,307c1.9-2.4,3.8-4.8,5.7-7.2c4.3-5.5,9.1-10.7,12.7-16.7c4.2-7,9.9-7.6,17.6-6.2
			c-8.7,10.6-17,20.9-25.7,31.5c9.1,11.3,18.2,22.5,27.4,33.8c-8.1,2.7-12.7,1.4-17.5-4.9c-6.6-8.7-13.3-17.4-20.9-26
			c0,10.4,0,20.9,0,31.6c-3.8,0-6.9,0-10.4,0c0-22,0-43.9,0-66.1c3.1,0,6.1,0,10,0c0,9.8,0,19.8,0,29.8
			C44.8,306.7,45.3,306.9,45.7,307z"/>
		<path class="st0" d="M112.9,294.5c-2.6,0-5.1,0.2-7.4,0.7c-0.6,0.1-1.2,0.3-1.8,0.4c-0.6,0.2-1.1,0.4-1.7,0.5
			c-0.5,0.2-0.9,0.3-1.3,0.5c-5.6,2.4-9.6,6.7-11.8,12.5c-0.3,0.9-0.6,1.8-0.9,2.8c-0.1,0.6-0.3,1.2-0.4,1.8
			c-0.3,1.7-0.5,3.5-0.5,5.4c0,3.4,0.4,6.5,1.3,9.4c0.1,0.3,0.2,0.6,0.3,0.9c0.2,0.6,0.4,1.2,0.7,1.7v0c0.2,0.5,0.5,1,0.7,1.5
			c3.7,6.9,10.6,11.2,19.7,11.6c0.3,0,0.6,0,0.9,0c0.5,0,1.1,0,1.6,0c10.7-0.4,18.6-6.1,21.9-15.1c0.5-1.3,0.8-2.7,1.1-4.1
			c0.1-0.4,0.1-0.7,0.2-1.1c0.2-1.4,0.3-2.9,0.3-4.5C136,304.1,127.3,294.7,112.9,294.5z M108.5,335.3c-2.6-0.6-5.3-2.5-7.2-4.5
			c-0.1-0.1-0.2-0.3-0.4-0.4c-0.1-0.1-0.2-0.3-0.4-0.4c-0.1-0.2-0.2-0.3-0.4-0.5c-3-4.3-3.2-11.8-1.3-17.4c0.5-1.4,1.1-2.7,1.9-3.8
			c1.1-1.5,2.3-2.7,3.7-3.5c0.1-0.1,0.3-0.2,0.4-0.2c2.4-1.3,5.3-1.7,8.5-1.5c1,0.1,1.9,0.2,2.8,0.5c0.2,0.1,0.4,0.1,0.6,0.2
			c2.9,1,5.1,3,6.5,5.9c0.1,0.2,0.2,0.4,0.3,0.6c0.1,0.2,0.2,0.5,0.3,0.7c0.9,2.6,1.2,5.5,1.8,8.2
			C125.4,331.3,118.7,337.9,108.5,335.3z"/>
		<path class="st0" d="M286.6,309.3c-0.4-8.5-4.5-12.9-12.9-14c-5.1-0.7-10.6,0-15.7,1.2c-2.1,0.5-3.6,0.9-4.6,1.5
			c-0.1,0.1-0.1,0.1-0.2,0.2c-2.1,1.4-1.9,3.6-0.8,8.6c16.8-7,23.9-5.5,24.3,5.5c0,0.1,0,0.1,0,0.2c-6.2,1.1-12.7,1.8-18.9,3.4
			c-2.5,0.7-4.7,1.9-6.4,3.5c-0.2,0.2-0.4,0.4-0.6,0.6c-3.4,3.7-4.7,9.2-3,14.8c2.1,7.2,10.1,11.4,18.1,8.8
			c3.9-1.3,7.2-4.1,10.9-6.2c0.2,1.7,0.4,3.6,0.7,5.7h9.5c0-1.6,0-3.1,0-4.7c0-1,0-2.1,0-3.1c0-0.5,0-1,0-1.5c0-1.5,0-3,0-4.5
			C287,322.5,287,315.9,286.6,309.3z M259.5,323.3c0.1-0.1,0.2-0.2,0.3-0.2c0.3-0.2,0.6-0.4,1-0.6c0.2-0.1,0.4-0.2,0.6-0.3
			c0.7-0.3,1.4-0.5,2.2-0.7c3.6-0.8,7.3-1.3,11.2-1.9c0.6-0.1,1.1-0.2,1.7-0.2c1.4,9.4-2.3,15.7-9.5,17c-0.6,0.1-1.2,0.2-1.8,0.2
			c-0.2,0-0.5,0-0.7,0c-0.2,0-0.3,0-0.5,0c-0.1,0-0.2,0-0.4,0c-0.4,0-0.7-0.1-1.1-0.2c-0.2,0-0.4-0.1-0.5-0.2
			c-0.2-0.1-0.3-0.1-0.5-0.2c-0.2-0.1-0.3-0.2-0.5-0.2c-0.2-0.1-0.5-0.2-0.7-0.4c-1.6-1-2.7-2.5-3.1-4.3c-0.6-2.9-0.1-5.3,1.6-7
			C259.1,323.7,259.2,323.5,259.5,323.3z"/>
		<path class="st0" d="M189.2,343.1c-3.2,0-6,0-9.7,0c0-5.1,0-10.2,0-15.3c0-4.8,0.1-9.7-0.2-14.5c-0.5-7-4-10.6-9.6-10.6
			c-5.9,0-11.1,4.6-11.5,11c-0.4,7.6-0.2,15.3-0.2,23c0,2,0,3.9,0,6.2c-3.6,0-6.6,0-10.1,0c0-15.5,0-31.1,0-47.1c3.1,0,6.3,0,9.8,0
			c0.2,2.1,0.4,4.2,0.5,5.9c3.8-2.2,7.2-5.2,11.3-6.5c9.6-3.1,18.6,2.1,19.4,12.1C189.9,319.1,189.2,330.9,189.2,343.1z"/>
		<path class="st0" d="M233.4,295.6c3.9,0,7,0,10.8,0c-2.6,6.8-5.1,13.3-7.6,19.8c-2.9,7.6-6.1,15.1-8.7,22.8c-1.3,4-3.4,5.6-7.5,5
			c-1.8-0.3-3.6,0-5.7,0c-5.8-15.9-11.6-31.6-17.5-47.6c4,0,7.3,0,11.1,0c4,12.6,8.1,25.3,12.4,38.8
			C225.1,320.8,229.3,308.2,233.4,295.6z"/>
		<path d="M66.7,100.6c0.9,1.1,2.7,1.1,6.5,1c2.1-0.1,3.6,0.2,4.4,1c-0.9-0.8-2.3-1-4.3-0.9C69.3,101.9,67.5,101.8,66.7,100.6z"/>
		<path d="M150.6,248.7c0.1,3.6-0.9,5.4-5.1,5.3c-24.8-0.2-49.7-0.2-74.5,0c-2,0-3.3-0.3-4.1-1.1c0.8,0.7,2.1,1,4,1
			c24.8-0.2,49.7-0.2,74.5,0c4.2,0,5.1-1.7,5.1-5.3c-0.1-7.2,0-14.3,0-21.5c0-3.9,0-6.2-0.8-7.4c0.9,1.2,0.9,3.5,0.9,7.5
			C150.6,234.4,150.5,241.5,150.6,248.7z"/>
		<path d="M136.9,111c-0.1,9.7-0.1,19.6-0.1,30.7v-30.8c0-8.9,0-9.1,9-9.1c3.9,0,4.9-1.6,4.8-5.1c-0.1-8.5-0.2-17,0-25.5
			c0.1-1.8-0.2-3.1-0.9-4c0.8,0.9,1.1,2.2,1,4.1c-0.2,8.5-0.1,17,0,25.5c0,3.4-0.9,5.1-4.8,5.1C136.9,101.9,136.9,102,136.9,111z"/>
		<path d="M153.9,173.7c0,0,0.1,0.1,0.1,0.1c-5.6,4.8-10.8,9.1-15.9,13.7c-0.9,0.8-1.3,2.7-1.3,4.1c-0.1,7.3,0.1,14.7-0.1,22
			c0,1.7,0.2,2.7,0.9,3.4c-0.7-0.7-1-1.8-1-3.5c0.2-7.3,0-14.7,0.1-22c0-1.4,0.4-3.2,1.3-4.1C143,182.8,148.3,178.5,153.9,173.7z"/>
		<path d="M165.9,100.6c0.8,0.9,2.1,1.2,4,1.2c4.2-0.2,8.5-0.1,14-0.1c0,0-0.1,0.1-0.1,0.1c-5.5,0-9.6-0.2-13.8,0.1
			C168,102,166.7,101.7,165.9,100.6z"/>
		<path d="M225.2,173.9c-8.8-12.5-17.5-25.1-27-38.6c1.3-0.8,2.5-1.3,3.5-2.2c9.5-7.9,19.1-15.6,28.2-23.9c5.8-5.4,11.8-8.9,20-7.5
			c3.3,0.5,4.9-0.8,4.8-4.4c-0.2-9-0.2-18,0-27c0-1.4-0.2-2.3-0.6-3c0.5,0.7,0.8,1.7,0.7,3.1c-0.1,9-0.2,18,0,27
			c0.1,3.6-1.5,4.9-4.8,4.4c-8.2-1.3-14.1,2.1-20,7.5c-9.1,8.3-18.7,16-28.2,23.9c-1,0.8-2.3,1.4-3.5,2.2
			C207.8,149,216.6,161.5,225.2,173.9c8.9,12.6,17.9,25.1,26.4,37.8c0.6,0.9,1.3,1.8,2,2.6c-0.7-0.8-1.4-1.7-2-2.7
			C243,198.9,234,186.5,225.2,173.9z"/>
		<path d="M263.8,253.9c-31.2-0.2-62.3-0.2-93.5,0c-1.8,0-3-0.3-3.8-0.9c0.8,0.5,2,0.8,3.7,0.8c31.2-0.2,62.3-0.2,93.5,0
			c4.2,0,5.1-1.6,5-5.3c-0.2-8.5-0.2-17,0-25.5c0-2-0.3-3.5-1.1-4.4c0.9,0.9,1.3,2.4,1.2,4.5c-0.3,8.5-0.2,17,0,25.5
			C268.9,252.3,267.9,253.9,263.8,253.9z"/>
		<path d="M100.2,329.4c-3-4.3-3.3-11.8-1.3-17.4C97,317.6,97.3,325.1,100.2,329.4z"/>
		<path d="M113.5,303c-3.2-0.2-6,0.2-8.5,1.5C107.5,303.1,110.4,302.7,113.5,303z"/>
		<path d="M257.3,330.8c-0.8-3.4,0.1-6.1,2.5-7.8C257.4,324.8,256.6,327.4,257.3,330.8z"/>
		<path d="M261.1,335.5c-2-0.9-3.4-2.6-3.8-4.7C257.8,332.9,259.2,334.5,261.1,335.5z"/>
		<path d="M274.9,319.5c-3.9,0.6-7.6,1.1-11.2,1.9C267.3,320.5,271,320.1,274.9,319.5z"/>
	</g>
</g>
</svg>
