<?xml version="1.0" encoding="utf-8"?>
<!-- Generator: Adobe Illustrator 24.3.0, SVG Export Plug-In . SVG Version: 6.00 Build 0)  -->
<svg version="1.1" className ='mainsvg' xmlns="http://www.w3.org/2000/svg" xmlns:xlink="http://www.w3.org/1999/xlink" x="0px" y="0px"
	 viewBox="0 0 1153 1003.9" style="enable-background:new 0 0 1153 1003.9;" xml:space="preserve">
<style type="text/css">

	.st1{fill:#ffffff;}
</style>

<g>
	<g>
		<path class="st1" d="M90.2,337.3c3-4.1,6-8.2,10.5-14.2c-10.9-1.5-20.2-3-30.3-4.1c0.7,6.4,1.1,11.6,1.9,18c6.7,0,12.7,0,18.7,0
			c2.6,5.6,5.2,11.2,8.6,18.3c9.7-10.5,15.7-17.2,21.7-24c-0.7-1.5-1.5-3.4-1.9-4.9C109.2,329.8,99.9,333.6,90.2,337.3z
			 M195.4,221.6c-23.6,22.5-47.2,44.6-70.8,67c11.6-3.7,21.7-9,28.8-16.8c14.6-16.1,27.7-33.7,41.6-50.5
			c13.1-11.2,26.6-22.5,39.7-33.7c-2.2-2.2-4.5-4.5-6.7-6.7c-8.2,11.2-16.8,22.5-24.7,32.9c-9-6-13.5-9.4-21.7-15
			C187.9,209.3,191.6,215.3,195.4,221.6z M427.8,287.1c4.9,1.9,9.4,3.7,16.8,6.4c-15,5.2-26.6,9.4-38.2,13.5
			c0.4,1.5,1.1,3.4,1.5,4.9c11.6-3.7,22.8-7.9,34.4-10.9c11.2-3,22.8-4.9,35.9-7.9C460,290.9,443.9,289,427.8,287.1
			c1.5-20.6-17.2-6.4-24.7-15.7c1.5-3.7,3.4-8.2,6-13.5c-23.6,5.6-16.1-16.1-16.8-20.6c-10.5,5.6-21,11.6-30.7,16.8
			c11.2,9.4,29.6-4.5,31.8,16.1c0.4,4.5-2.6,9-4.1,14.6C399.8,285.6,413.6,286.4,427.8,287.1z M303.5,33.7
			c-0.7-9.7-1.5-19.5-2.2-29.6c-1.5,0-3.4,0-4.9,0c-1.1,3.4-2.2,6.7-4.5,13.1c-2.6-7.1-3.7-10.9-6-17.2
			c-15,14.2-27.7,26.2-40.8,38.6c4.1,1.5,6.4-0.4,8.2-0.4c8.2-0.4,16.8,0,25.1,0c-1.1,7.5,0.4,16.5-3.7,21.7
			c-14.2,18.7,6,16.8,12.4,23.2c-1.9-9.7-3.4-19.8-5.6-33.3c19.8,12,16.5-4.9,22.5-9.4c2.2-0.4,4.5-0.7,7.5-1.5
			c-1.5,6.7-3.4,12.7-5.2,21c13.1-9.7,23.6-18,37.8-28.8c-11.2-4.5-18.7-7.1-21.7-8.2c-4.9-9.4-8.6-16.1-11.2-20.6
			C308.4,12.7,305.8,23.2,303.5,33.7z M362.3,425.7c1.1,2.2,1.9,4.9,3.7,6.4c14.2,11.2,27.3,26.2,43.8,32.2
			c13.5,4.9,27-6.4,32.9-21.3c6.4-16.1,1.9-32.6-11.2-40.1c-22.8-13.1-48.3-21.3-72.6-31.4c-0.4,0-1.1,1.5-3,3.7
			c17.6,9,35.2,17.6,53.2,26.6c-13.5,12.7-21.7,2.2-30.3-4.9c-27.3-22.1-29.6-22.5-52.4-7.5C338.4,401.3,350.3,413.3,362.3,425.7z
			 M553.3,929.6c0,0,2.6-1.1,5.2-2.2c-20.2-3.4-39.7-1.9-59.5-1.9c-11.6,0-24.3,0.4-34.1-4.5c-12.7-6.4-22.5-5.6-37.4,3
			c32.2,8.2,59.5,21,89.5,9.7c4.5,8.6,7.1,20.6,14.2,25.1c7.1,4.9,20.2,5.2,28.5,1.9c6.7-2.6,9.7-13.9,14.6-21
			C567.5,936.7,560.4,933.3,553.3,929.6z M692.9,908.2c14.6,7.1,25.8,11.6,35.9,17.6c6.4,3.7,11.2,10.5,17.6,13.5
			c5.6,2.6,16.5,4.5,18.7,1.9c4.9-6.7,9.4-16.8,7.9-24.3c-1.1-6.4-10.9-16.5-16.8-16.1C735.9,901.1,716.1,905.2,692.9,908.2z
			 M105.1,287.5c-4.5-3.7-7.9-9.4-12-10.1c-22.1-4.1-37.1,9.4-50.9,23.2c-4.5,4.5-4.1,14.6-4.9,22.1c-0.7,6.7,0,13.5,0,22.1
			c2.6,0,8.2,0,13.9,0c-0.7-28.5,3.4-38.2,22.1-45.3c7.5-3,16.8,0.7,24.7-1.5c6-1.5,11.2-7.5,16.5-11.6c0,0-0.7-1.9-1.9-4.5
			C108.5,284.9,105.5,287.5,105.1,287.5z M46,374.4c-2.2,0.7-4.9,1.1-7.1,1.9c-5.2-18-10.5-35.9-15.3-51.7c-7.9,21,3,54.7,23.2,65.5
			c22.8,12.4,62.1,13.5,83.1-18.7c-19.1,9.7-36.7,27-61,16.8c2.6-5.2,5.2-10.9,8.6-17.2c-7.5-3.7-13.9-6.7-20.2-10.1
			C53.1,365.8,49.7,370.3,46,374.4z M685.4,516.6c10.1-1.9,18-3.4,25.5-4.5c-0.4-2.2-0.7-4.5-1.1-6.7c-25.8-1.9-51.7-4.5-77.5-4.9
			c-7.9,0-16.1,6.7-24.3,10.1c0,2.6-0.4,5.2-0.4,7.5c23.2-16.1,37.8-8.6,48.7,11.6c1.9,3.4,8.6,3.7,17.6,7.1
			c-6.4-8.2-9.4-12-12.4-15.7c0.7-1.1,1.5-2.2,2.6-3.7c7.1,3.4,14.2,7.1,22.5,11.2C686.2,524.1,685.8,520.4,685.4,516.6z
			 M476.5,329.4c-42.3,6-79.7,11.2-119.4,16.8c8.6,2.2,18.3,2.2,19.5,5.2c4.5,12,12.7,8.6,19.8,6.4c21-6,40.4-1.1,59.2,7.9
			c2.6,1.1,5.6,1.1,8.6,1.9c0.4-0.7,0.4-1.9,0.7-2.6c-9-4.5-18-9.4-29.9-15.3C448.4,342.9,460,337.3,476.5,329.4z M256.7,353.8
			c0-7.5-2.6-16.1,0.7-22.1c3.4-6.4,13.1-9.4,18-15.7c3.7-4.9,4.9-12.4,7.5-20.2c-13.5-2.2-25.8-4.5-39.7-7.1
			C243.6,313.4,242.1,335.1,256.7,353.8z M358.6,441.4c1.1,24.3,15.7,43.4,37.8,51.3c22.5,7.9,45.3-0.7,62.1-19.5
			c14.6-16.1,18.7-38.2,10.5-56.5c-2.2,41.2-12.4,60.6-38.9,65.9c-12.7,2.6-29.2,1.9-39.3-4.9C377.3,469.1,368.7,453.4,358.6,441.4z
			 M718.4,504.3c16.8,16.8,96.6,15.7,117.2,0C797,504.3,758.4,504.3,718.4,504.3z M310.3,291.6c-11.6-6-21.3-11.2-29.9-15.7
			c8.6,22.1,16.8,43.1,27,68.5C320.4,325,306.2,306.6,310.3,291.6z M471.3,995.5c24,19.5,44.6-0.4,66.6-3.4
			c-5.2-3-10.9-4.1-16.1-4.5c-5.6-0.7-12.4,0.7-17.2-1.9C489.6,977.5,480.6,984.6,471.3,995.5z M189.4,254.9
			c-0.7,1.1-1.5,2.6-1.9,3.7c10.1,25.8,20.2,51.7,31.1,79c5.2-1.1,10.9-2.2,19.5-4.1c-21.7-20.2-36.7-41.2-37.4-69.6
			C200.2,260.9,193.1,257.9,189.4,254.9z M917.1,516.6c-6.4-9-12.7-22.5-30.7-17.6c-13.1,3.4-26.6,4.5-39.7,6.7
			c0.4,1.1,0.4,2.2,0.7,3.4C871.5,511.8,895.4,514.4,917.1,516.6z M592.9,972.6c14.2-4.5,24.7-6.7,34.4-10.9
			c12.4-5.6,14.2-15.3,6-29.2C625.5,952.4,597.8,947.5,592.9,972.6z M442.4,308.1c18.7,25.5,36.3,3,56.9,3
			C483.2,299.5,473.1,299.1,442.4,308.1z M241.4,371c12,12.4,69.6,21,77.5,10.1C293.1,377.7,267.6,374.4,241.4,371z M736.7,743.9
			c0.4,1.9,0.7,3.4,1.1,5.2c11.2-2.6,22.5-5.2,33.7-8.6c1.9-0.7,2.2-5.6,3.4-8.6c-2.6-1.1-6-3.4-7.9-2.6
			C756.5,733.4,746.8,738.6,736.7,743.9z M408.4,146.8c-12.4-14.2-27.7-10.1-47.2,11.2C377.3,154.2,392.6,150.5,408.4,146.8z
			 M167.6,218.3c-6.7-21-25.1-27.3-43.4-16.5C138.1,207,152.7,212.6,167.6,218.3z M1128.3,643.9c2.2,2.2,4.9,4.9,7.1,7.1
			c6-4.1,11.6-8.6,17.6-12.7c-4.5-3.7-9-7.1-13.1-10.9C1135.8,632.7,1132,638.3,1128.3,643.9z M1121.6,679.1c-1.5,1.1-3,2.2-4.5,3
			c2.2,7.5,4.5,15,7.1,22.5c1.9,6,4.5,12,6.7,18c2.6-1.1,5.6-2.6,8.2-3.7C1133.5,705.7,1127.5,692.2,1121.6,679.1z M844.9,892.5
			c-13.5-15.3-30.7-12.4-39.7,3C817.6,894.8,830.3,893.6,844.9,892.5z M322.3,241.1c-3,2.6-5.2,4.5-7.5,6.4c-2.2,1.9-4.9,3.7-9,7.1
			c5.2,9,10.1,17.2,16.8,28.8C322.3,265.8,322.3,254.2,322.3,241.1z M306.2,232.5c-9.7-13.5-21-28.5-31.4-42.3
			C271.3,211.9,285.2,226.1,306.2,232.5z M173.6,315.6c-1.9-0.4-3.4-0.7-5.2-1.1c-2.2,17.2-4.9,34.4-7.1,52c2.2,0.4,4.1,0.7,6.4,0.7
			C169.5,350,171.4,332.8,173.6,315.6z M5.5,318.6c-9,21-6.7,41.2,4.5,50.2C8.5,353,7,335.8,5.5,318.6z M338,210.8
			c-0.7-1.5-1.1-2.6-1.9-4.1c-7.9,5.2-15.7,10.5-24.7,16.5c5.6,6.7,9,10.5,13.9,16.5C330.1,228.4,334.2,219.4,338,210.8z
			 M588.4,659.3c0.4-1.9,0.7-3.7,1.1-5.6c-12.4-2.2-22.5-22.5-37.1-4.1C565.2,652.9,576.8,655.9,588.4,659.3z M1136.5,511.8
			c-14.6-12-14.6-12-29.6,12C1118.2,518.9,1126.8,515.5,1136.5,511.8z M1013.7,518.5c1.1-3.4,1.9-6.4,3-9.7
			c-6.7-1.9-13.5-4.5-20.6-5.6c-1.1,0-3,5.2-4.5,8.2C998.8,514,1006.2,516.3,1013.7,518.5z M136.2,328c-3.7-1.5-4.9-2.6-5.2-2.2
			c-0.7,0.4-1.9,1.5-1.9,2.6c0,0.7,1.1,2.2,1.5,2.2C132.1,329.8,133.6,329.1,136.2,328z"/>
		<path class="st1" d="M326,389c22.8-15,25.5-14.6,52.4,7.5c8.6,7.1,16.8,17.6,30.3,4.9c-18-9-35.2-17.6-53.2-26.6
			c1.9-2.2,2.6-3.7,3-3.7c24.3,10.1,49.8,18.7,72.6,31.4c13.1,7.5,18,24,11.2,40.1c-6,15-19.8,26.2-32.9,21.3
			c-16.5-6-29.6-21-43.8-32.2c-1.9-1.5-2.6-4.1-3.7-6.4c8.2,0,16.8,0,27.7,0C367.9,412.9,347,401,326,389z"/>
		<path class="st1" d="M553.3,929.6c6.7,3.4,13.9,6.7,21,10.5c-4.9,7.5-7.9,18.3-14.6,21c-8.2,3.4-21.3,2.6-28.5-1.9
			c-7.1-4.9-9.7-16.5-14.2-25.1c-29.6,11.2-56.9-1.9-89.5-9.7c15-8.6,24.7-9.4,37.4-3c9.7,4.9,22.5,4.5,34.1,4.5
			c19.5,0,39.3-1.5,59.5,1.9C556.2,928.4,553.3,929.6,553.3,929.6z"/>
		<path class="st1" d="M692.9,908.2c23.2-3,43.4-7.1,63.6-7.5c6,0,15.7,9.7,16.8,16.1c1.5,7.5-3,17.6-7.9,24.3
			c-1.9,2.6-13.1,0.7-18.7-1.9c-6.7-3-11.2-10.1-17.6-13.5C718.7,919.8,707.5,915.3,692.9,908.2z"/>
		<path class="st1" d="M303.5,40.4c-5.6,4.5-2.6,21.3-22.5,9.4c2.2,13.9,4.1,23.6,5.6,33.3c-6-6.4-26.6-4.5-12.4-23.2
			c4.1-5.2,2.6-14.6,3.7-21.7c-8.2,0-16.8-0.4-25.1,0c-2.2,0-4.1,1.9-8.2,0.4c13.1-12.4,25.8-24.3,40.8-38.6c2.2,6,3.7,10.1,6,17.2
			c2.2-6.4,3.4-9.7,4.5-13.1c1.5,0,3.4,0,4.9,0c0.7,9.7,1.5,19.5,2.2,29.6C303.5,35.9,303.5,38.2,303.5,40.4z"/>
		<path class="st1" d="M113.7,286.4c-5.2,4.1-10.5,9.7-16.5,11.6c-7.9,2.2-17.6-1.1-24.7,1.5c-18.7,7.1-22.5,16.8-22.1,45.3H36.6
			c0-8.2-0.7-15.3,0-22.1c0.7-7.5,0.4-17.6,4.9-22.1c13.9-13.9,29.2-27.3,50.9-23.2c5.2,1.1,8.2,6.4,12.7,10.1
			c0.4-0.4,3.4-2.6,6.7-5.6C113,284.1,114.1,286,113.7,286.4z"/>
		<path class="st1" d="M46,374.4c3.7-4.1,7.1-8.6,11.6-13.9c6.4,3.4,12.7,6.4,20.2,10.1c-3.4,6.4-6,12-8.6,17.2
			c24,10.5,41.6-7.1,61-16.8c-21,32.2-60.3,30.7-83.1,18.7c-20.2-10.9-31.1-44.6-23.2-65.5c4.5,15.7,10.1,33.7,15.3,51.7
			C41.1,375.5,43.7,374.7,46,374.4z"/>
		<path class="st1" d="M685.4,516.6c0.4,3.7,0.7,7.5,1.5,12c-8.2-4.1-15.3-7.5-22.5-11.2c-0.7,1.1-1.5,2.2-2.6,3.7
			c3,3.7,6,7.9,12.4,15.7c-9-3.4-15.7-3.7-17.6-7.1c-10.9-20.2-25.8-27.3-48.7-11.6c0-2.6,0.4-5.2,0.4-7.5
			c8.2-3.7,16.1-10.5,24.3-10.1c25.8,0.4,51.7,3,77.5,4.9c0.4,2.2,0.7,4.5,1.1,6.7C703.4,513.3,695.9,514.8,685.4,516.6z"/>
		<path class="st1" d="M476.5,329.4c-16.5,7.9-27.7,13.5-41.9,20.2c11.6,6,21,10.5,29.9,15.3c-0.4,0.7-0.4,1.9-0.7,2.6
			c-3-0.4-6-0.4-8.6-1.9c-19.1-9-38.2-13.9-59.2-7.9c-7.1,1.9-15.3,5.6-19.8-6.4c-1.1-3-10.9-3.4-19.5-5.2
			C396.8,340.3,434.2,335.1,476.5,329.4z"/>
		<path class="st1" d="M256.7,353.8c-14.6-18.7-13.1-40.4-13.9-64.4c13.9,2.6,26.2,4.5,39.7,7.1c-2.6,7.5-3.4,15-7.5,20.2
			c-4.9,6-14.2,9-18,15.7C254.1,337.7,256.7,346.7,256.7,353.8z"/>
		<path class="st1" d="M358.6,441.4c10.5,12.4,19.1,27.7,32.2,35.9c10.1,6.4,26.6,7.1,39.3,4.9c26.6-5.2,36.7-24.7,38.9-65.9
			c8.2,18.3,4.1,40.4-10.5,56.5c-16.8,18.7-39.7,27.3-62.1,19.5C374.3,484.8,359.3,465.7,358.6,441.4z"/>
		<path class="st1" d="M718.4,504.3c40.4,0,78.6,0,117.2,0C814.9,520,735.2,521.1,718.4,504.3z"/>
		<path class="st1" d="M427.8,287.1c-13.9-0.7-27.7-1.5-38.9-2.2c1.5-5.6,4.5-10.1,4.1-14.6c-2.2-20.6-20.6-7.1-31.8-16.1
			c9.7-5.2,20.2-11.2,30.7-16.8c0.7,4.5-6.7,26.2,16.8,20.6c-2.2,5.2-4.5,10.1-6,13.5C410.2,280.8,429.3,266.6,427.8,287.1
			L427.8,287.1z"/>
		<path class="st1" d="M310.3,291.6c-4.1,15,10.1,33.3-3,52.8c-9.7-25.5-18.3-46.4-27-68.5C289.3,280.4,299.1,285.6,310.3,291.6z"/>
		<path class="st1" d="M471.3,995.5c9.4-10.9,18.3-17.6,33.3-9.7c4.9,2.6,11.2,1.1,17.2,1.9c5.6,0.7,10.9,1.5,16.1,4.5
			C515.8,994.7,495.2,1014.9,471.3,995.5z"/>
		<path class="st1" d="M303.5,40.4c0-2.2,0-4.5,0-6.7c2.2-10.5,4.5-21,6.7-31.4c2.2,4.1,6,11.2,11.2,20.6c3.4,1.1,10.5,4.1,21.7,8.2
			c-14.2,10.9-24.7,19.1-37.8,28.8c1.9-7.9,3.7-14.2,5.2-21C308,39.7,305.8,40.1,303.5,40.4z"/>
		<path class="st1" d="M189.4,254.9c3.7,3,10.9,6,10.9,9c0.4,28.5,15.7,49,37.4,69.6c-8.6,1.9-14.2,3-19.5,4.1
			c-10.5-27.3-21-53.2-31.1-79C187.9,257.6,188.6,256.1,189.4,254.9z"/>
		<path class="st1" d="M917.1,516.6c-21.7-2.2-45.7-4.9-69.6-7.5c-0.4-1.1-0.4-2.2-0.7-3.4c13.1-2.2,26.6-3.4,39.7-6.7
			C904,494.5,910.8,507.7,917.1,516.6z"/>
		<path class="st1" d="M592.9,972.6c5.2-25.1,32.9-20.6,40.4-40.1c8.2,13.9,6.4,23.6-6,29.2C617.6,966.3,606.8,968.5,592.9,972.6z"
			/>
		<path class="st1" d="M442.4,308.1c30.7-9,40.4-8.6,56.9,3C478.8,310.7,461.2,333.6,442.4,308.1z"/>
		<path class="st1" d="M195,221.3c-13.9,16.8-27,34.4-41.6,50.5c-7.1,7.9-17.6,13.1-28.8,16.8c23.6-22.5,47.2-44.6,70.8-67
			L195,221.3z"/>
		<path class="st1" d="M241.4,371c26.2,3.4,51.7,6.7,77.5,10.1C311,392,253.4,383,241.4,371z"/>
		<path class="st1" d="M326,389c21,12,41.6,24,64,36.7c-10.9,0-19.1,0-27.7,0C350.3,413.3,338.4,401.3,326,389z"/>
		<path class="st1" d="M736.7,743.9c10.1-5.2,19.8-10.5,30.3-15c1.9-0.7,5.2,1.9,7.9,2.6c-1.1,3-1.5,8.2-3.4,8.6
			c-10.9,3.4-22.5,6-33.7,8.6C737.4,747.3,737.1,745.4,736.7,743.9z"/>
		<path class="st1" d="M427.8,287.1c16.1,1.9,32.2,3.7,50.5,6c-13.1,3-24.7,4.9-35.9,7.9c-11.6,3-22.8,7.5-34.4,10.9
			c-0.4-1.5-1.1-3.4-1.5-4.9c11.6-4.1,23.2-8.2,38.2-13.5C437.2,290.9,432.3,289,427.8,287.1L427.8,287.1z"/>
		<path class="st1" d="M195.4,221.6c-3.7-6-7.1-12-13.9-22.8c8.2,5.6,12.7,9,21.7,15c7.9-10.5,16.5-21.7,24.7-32.9
			c2.2,2.2,4.5,4.5,6.7,6.7c-13.1,11.2-26.6,22.5-39.7,33.7C195,221.3,195.4,221.6,195.4,221.6z"/>
		<path class="st1" d="M408.4,146.8c-15.7,3.7-31.1,7.5-47.2,11.2C381,136.6,396,132.5,408.4,146.8z"/>
		<path class="st1" d="M167.6,218.3c-15-5.6-29.6-11.2-43.4-16.5C142.6,190.9,160.9,197.3,167.6,218.3z"/>
		<path class="st1" d="M1128.3,643.9c3.7-5.6,7.5-10.9,11.6-16.5c4.5,3.7,9,7.1,13.1,10.9c-6,4.1-11.6,8.6-17.6,12.7
			C1133.2,648.4,1130.5,646.2,1128.3,643.9z"/>
		<path class="st1" d="M1121.6,679.1c6,13.1,11.6,26.6,17.6,39.7c-2.6,1.1-5.6,2.6-8.2,3.7c-2.2-6-4.5-12-6.7-18
			c-2.6-7.5-4.9-15-7.1-22.5C1118.6,681.4,1120.1,680.2,1121.6,679.1z"/>
		<path class="st1" d="M844.9,892.5c-14.6,1.1-27.7,1.9-39.7,3C814.6,880.2,831.8,877.2,844.9,892.5z"/>
		<path class="st1" d="M322.3,241.1c0,13.1,0,24.7,0,42.3c-6.7-11.6-11.6-19.8-16.8-28.8c4.5-3.4,6.7-5.2,9-7.1
			C316.6,245.2,318.9,243.7,322.3,241.1z"/>
		<path class="st1" d="M306.2,232.5c-20.6-6.4-34.4-21-31.4-42.3C285.2,204,296.1,219,306.2,232.5z"/>
		<path class="st1" d="M173.6,315.6c-2.2,17.2-4.1,34.4-6.4,51.7c-2.2-0.4-4.1-0.7-6.4-0.7c2.2-17.2,4.9-34.4,7.1-52
			C169.9,314.8,171.8,315.2,173.6,315.6z"/>
		<path class="st1" d="M5.5,318.6c1.5,17.2,3,34.4,4.5,50.2C-1.2,360.1-3.4,339.6,5.5,318.6z"/>
		<path class="st1" d="M90.2,337.3c9.7-3.7,19.1-7.5,28.8-11.2c0.7,1.5,1.5,3.4,1.9,4.9c-6,6.7-12,13.1-21.7,24
			c-3.4-7.1-6-12.7-8.6-18.3L90.2,337.3z"/>
		<path class="st1" d="M90.9,336.6c-6,0-12,0-18.7,0c-0.7-6.4-1.1-11.6-1.9-18c10.1,1.5,19.1,2.6,30.3,4.1
			c-4.5,6-7.5,10.1-10.5,14.2C90.2,337.3,90.9,336.6,90.9,336.6z"/>
		<path class="st1" d="M338,210.8c-4.1,9-7.9,18-12.7,28.8c-4.9-6-8.2-10.1-13.9-16.5c9.4-6,16.8-11.2,24.7-16.5
			C336.9,207.8,337.2,209.3,338,210.8z"/>
		<path class="st1" d="M588.4,659.3c-11.6-3-23.2-6.4-35.6-9.7c14.2-18.3,24.7,1.9,37.1,4.1C589.2,655.5,588.8,657.4,588.4,659.3z"
			/>
		<path class="st1" d="M1136.5,511.8c-9.7,4.1-18.3,7.5-29.6,12C1121.9,499.4,1121.9,499.4,1136.5,511.8z"/>
		<path class="st1" d="M1013.7,518.5c-7.5-2.2-15-4.5-22.1-6.7c1.5-3,3.4-8.6,4.5-8.2c7.1,1.1,13.9,3.4,20.6,5.6
			C1015.6,511.8,1014.9,515.1,1013.7,518.5z"/>
		<path class="st1" d="M136.2,328c-2.6,1.1-4.1,1.9-5.6,2.2c-0.4,0-1.9-1.5-1.5-2.2c0.4-1.1,1.1-1.9,1.9-2.6
			C131.3,325.3,132.5,326.5,136.2,328z"/>
	</g>
</g>
</svg>
