<?xml version="1.0" encoding="utf-8"?>
<!-- Generator: Adobe Illustrator 24.3.0, SVG Export Plug-In . SVG Version: 6.00 Build 0)  -->
<svg version="1.1" className ='mainsvg' xmlns="http://www.w3.org/2000/svg" xmlns:xlink="http://www.w3.org/1999/xlink" x="0px" y="0px"
	 viewBox="0 0 2435.4 2432.9" style="enable-background:new 0 0 2435.4 2432.9;" xml:space="preserve">
<style type="text/css">
	.st0{fill:#FFFFFF;}
</style>
<path class="st0" d="M1146.5,1276.2c123.3,0,245.9,0,368.6,1.7c-268.6,216.9-528.5,444.2-801.7,655.2
	C856.4,1713.4,1003.5,1496,1146.5,1276.2z"/>
<path class="st0" d="M920.9,1154.7c266.9-218,527.9-443.6,800.6-655.2c-143,219.8-290.1,436.6-433.1,656.4
	C1165.7,1156.4,1043,1156.4,920.9,1154.7z"/>
<path class="st0" d="M2434.9,1189c-5.8-407.6-234.3-803.5-584.3-1012.8C1572.7,4.7,1224.4-42.4,909.3,38.4
	c-475,118-851.7,548.3-900,1036c-59.9,461.7,173.3,942.5,572.7,1180.9c391.9,245.3,922.7,235.4,1306.4-22.7
	C2233.2,2008.8,2447.7,1600.6,2434.9,1189z M1285.5,2252.9C732,2308.2,197.1,1839,181.4,1283.2c-41.3-450,255.2-896.5,679.7-1045.4
	c595.4-238.4,1325.6,201.7,1387.2,840.1C2344.2,1652.3,1867.5,2236,1285.5,2252.9z"/>
<path d="M1146.5,1276.2c123.3,0,245.9,0,368.6,1.7c-268.6,216.9-528.5,444.2-801.7,655.2C856.4,1713.4,1003.5,1496,1146.5,1276.2z"
	/>
<path d="M920.9,1154.7c266.9-218,527.9-443.6,800.6-655.2c-143,219.8-290.1,436.6-433.1,656.4
	C1165.7,1156.4,1043,1156.4,920.9,1154.7z"/>
<path class="st0" d="M1146.5,1276.2c-143,219.8-290.1,437.2-433.1,656.9c273.2-211,533.1-438.3,801.7-655.2
	C1392.4,1276.2,1269.8,1276.2,1146.5,1276.2z M920.9,1154.7c122.1,1.7,244.8,1.7,367.5,1.2c143-219.8,290.1-436.6,433.1-656.4
	C1448.8,711.1,1187.8,936.7,920.9,1154.7z"/>
</svg>
